<?xml version="1.0" encoding="iso-8859-1"?>
<!-- Generator: Adobe Illustrator 19.0.0, SVG Export Plug-In . SVG Version: 6.00 Build 0)  -->
<!-- License: CC0. Made by undefinedSVG Repo -->
<svg version="1.1" id="Layer_1" xmlns="http://www.w3.org/2000/svg" xmlns:xlink="http://www.w3.org/1999/xlink" x="0px" y="0px"
	 viewBox="0 0 512 512" style="enable-background:new 0 0 512 512;" xml:space="preserve">
<path style="fill:#CED4D2;" d="M340.536,36.766v145.571l-125.663,32.681L89.209,182.337V36.766
	c0-17.974,14.706-32.681,32.681-32.681h185.965C325.829,4.085,340.536,18.791,340.536,36.766z"/>
<rect x="121.889" y="36.364" style="fill:#EBEEED;" width="184.037" height="113.294"/>
<rect x="89.208" y="182.337" style="fill:#1E3D2E;" width="251.327" height="317.407"/>
<path style="fill:#7FA339;" d="M190.915,285.952c-31.227,31.228-43.147,74.441-35.782,114.83
	c40.388,7.366,83.603-4.556,114.83-35.782s43.147-74.442,35.782-114.83C265.357,242.803,222.143,254.724,190.915,285.952z"/>
<rect x="121.889" y="36.364" style="fill:#FFFFFF;" width="184.037" height="113.294"/>
<rect x="407.541" y="84.164" style="fill:#7FA339;" width="26.145" height="80.123"/>
<path d="M319.23,252.789c-0.61-3.344-3.228-5.962-6.572-6.572c-44.503-8.114-90.135,6.106-122.073,38.043
	c-30.915,30.915-45.229,74.665-38.752,117.797l-30.272,30.276c-3.191,3.191-3.19,8.364,0.001,11.555
	c1.596,1.595,3.686,2.392,5.777,2.392s4.182-0.797,5.778-2.393l30.277-30.279c6.826,1.025,13.665,1.537,20.47,1.537
	c36.185,0,71.303-14.262,97.325-40.284C313.124,342.923,327.346,297.289,319.23,252.789z M269.632,363.306
	c-24.257,24.257-57.481,36.916-91.311,35.369l107.778-107.787c3.191-3.191,3.19-8.364,0-11.555c-3.192-3.191-8.363-3.19-11.555,0
	L166.77,387.117c-1.544-33.827,11.114-67.049,35.369-91.304c26.787-26.787,64.513-39.434,101.912-34.419
	C309.064,298.791,296.421,336.518,269.632,363.306z"/>
<path d="M127.338,161.913c4.512,0,8.17-3.658,8.17-8.17V48.619h167.691v105.123c0,4.512,3.658,8.17,8.17,8.17s8.17-3.658,8.17-8.17
	V40.449c0-4.512-3.658-8.17-8.17-8.17H127.338c-4.512,0-8.17,3.658-8.17,8.17v113.294
	C119.167,158.255,122.826,161.913,127.338,161.913z"/>
<path d="M439.13,80.076h-5.508c-3.964-26.779-27.097-47.395-54.959-47.395c-4.512,0-8.17,3.658-8.17,8.17s3.658,8.17,8.17,8.17
	c18.827,0,34.593,13.335,38.363,31.054h-14.933c-4.512,0-8.17,3.658-8.17,8.17c0,4.512,3.658,8.17,8.17,8.17h2.723v71.947
	c0,4.512,3.658,8.17,8.17,8.17h4.902v186.684c0,6.534-5.315,11.849-11.849,11.849c-6.533,0-11.849-5.315-11.849-11.849V168.363
	c0-23.797-17.335-43.608-40.037-47.502v-80.01C354.154,18.326,335.828,0,313.303,0H127.338c-22.526,0-40.851,18.326-40.851,40.851
	V495.66H72.87c-4.512,0-8.17,3.658-8.17,8.17s3.658,8.17,8.17,8.17h294.9c4.512,0,8.17-3.658,8.17-8.17s-3.658-8.17-8.17-8.17
	h-13.617V137.561c13.626,3.618,23.697,16.054,23.697,30.802v194.854c0,15.544,12.645,28.189,28.189,28.189
	c15.544,0,28.189-12.645,28.189-28.189V176.533h4.902c4.512,0,8.17-3.658,8.17-8.17V88.246
	C447.301,83.734,443.643,80.076,439.13,80.076z M127.338,16.34h185.964c13.516,0,24.511,10.996,24.511,24.511v137.402H102.827
	V40.851C102.827,27.336,113.822,16.34,127.338,16.34z M102.827,495.66V194.594h234.985V495.66H102.827z M421.156,160.193V96.416
	h9.804v63.777H421.156z"/>
</svg>
